<svg width="151" height="67" viewBox="0 0 151 67" fill="none" xmlns="http://www.w3.org/2000/svg">
<g clip-path="url(#clip0_9_2514)">
<mask id="mask0_9_2514" style="mask-type:luminance" maskUnits="userSpaceOnUse" x="31" y="30" width="11" height="12">
<path d="M31.3862 30.8861H41.5128V41.519H31.3862V30.8861Z" fill="white"/>
</mask>
<g mask="url(#mask0_9_2514)">
<mask id="mask1_9_2514" style="mask-type:luminance" maskUnits="userSpaceOnUse" x="31" y="31" width="11" height="11">
<path d="M41.4118 36.1689C41.4118 36.4893 41.3822 36.8058 41.3189 37.1203C41.2576 37.4347 41.1646 37.7393 41.042 38.034C40.9193 38.3287 40.769 38.6096 40.591 38.8766C40.413 39.1416 40.2113 39.3889 39.9858 39.6143C39.7603 39.8398 39.5131 40.0435 39.2481 40.2196C38.981 40.3976 38.7002 40.5479 38.4055 40.6705C38.1088 40.7931 37.8042 40.8861 37.4917 40.9474C37.1773 41.0107 36.8608 41.0423 36.5404 41.0423C36.22 41.0423 35.9035 41.0107 35.591 40.9474C35.2765 40.8861 34.972 40.7931 34.6773 40.6705C34.3806 40.5479 34.0997 40.3976 33.8347 40.2196C33.5677 40.0435 33.3224 39.8398 33.095 39.6143C32.8695 39.3889 32.6678 39.1416 32.4898 38.8766C32.3117 38.6096 32.1614 38.3287 32.0388 38.034C31.9182 37.7393 31.8252 37.4347 31.7619 37.1203C31.7006 36.8058 31.6689 36.4893 31.6689 36.1689C31.6689 35.8505 31.7006 35.5321 31.7619 35.2196C31.8252 34.9051 31.9182 34.6005 32.0388 34.3058C32.1614 34.0091 32.3117 33.7283 32.4898 33.4632C32.6678 33.1962 32.8695 32.951 33.095 32.7255C33.3224 32.498 33.5677 32.2963 33.8347 32.1183C34.0997 31.9403 34.3806 31.79 34.6773 31.6693C34.972 31.5467 35.2765 31.4537 35.591 31.3904C35.9035 31.3291 36.22 31.2975 36.5404 31.2975C36.8608 31.2975 37.1773 31.3291 37.4917 31.3904C37.8042 31.4537 38.1088 31.5467 38.4055 31.6693C38.7002 31.79 38.981 31.9403 39.2481 32.1183C39.5131 32.2963 39.7603 32.498 39.9858 32.7255C40.2113 32.951 40.413 33.1962 40.591 33.4632C40.769 33.7283 40.9193 34.0091 41.042 34.3058C41.1646 34.6005 41.2576 34.9051 41.3189 35.2196C41.3822 35.5321 41.4118 35.8505 41.4118 36.1689Z" fill="white"/>
</mask>
<g mask="url(#mask1_9_2514)">
<path d="M31.6689 31.2975V41.0423H41.4118V31.2975H31.6689Z" fill="#18B368"/>
</g>
</g>
<path d="M13.9058 38.0815C13.8306 38.0815 13.7535 38.0617 13.6843 38.0222C13.4766 37.9015 8.5379 35.0316 4.8057 30.5162C4.65143 30.3283 4.67714 30.0494 4.86504 29.8932C5.05491 29.7369 5.33379 29.7646 5.49004 29.9525C8.67833 33.8093 12.901 36.5071 13.9058 37.1203C15.49 36.1511 25.051 30 26.0557 22.233C26.1111 21.8948 26.1388 21.5684 26.1388 21.25C26.1388 18.0004 23.4944 15.356 20.2428 15.356C19.9995 15.356 19.7998 15.1582 19.7998 14.913C19.7998 14.6677 19.9995 14.4699 20.2428 14.4699C23.9829 14.4699 27.0248 17.5119 27.0248 21.25C27.0248 21.6179 26.9932 21.9917 26.9319 22.3616C25.7867 31.2124 14.602 37.7472 14.1273 38.0222C14.0581 38.0617 13.9829 38.0815 13.9058 38.0815Z" fill="#343233"/>
<mask id="mask2_9_2514" style="mask-type:luminance" maskUnits="userSpaceOnUse" x="0" y="14" width="9" height="16">
<path d="M0.737305 14.1772H8.0949V29.3671H0.737305V14.1772Z" fill="white"/>
</mask>
<g mask="url(#mask2_9_2514)">
<path d="M3.87797 28.9933C3.73557 28.9933 3.59712 28.926 3.51207 28.7994C2.03857 26.6396 1.1525 24.4699 0.877578 22.3477C0.82022 21.9937 0.788574 21.6199 0.788574 21.25C0.788574 17.5119 3.83051 14.4699 7.56864 14.4699C7.81389 14.4699 8.01168 14.6677 8.01168 14.913C8.01168 15.1582 7.81389 15.356 7.56864 15.356C4.31903 15.356 1.67465 18.0004 1.67465 21.25C1.67465 21.5704 1.70036 21.8968 1.75376 22.2172C2.01286 24.2148 2.84949 26.2579 4.24387 28.301C4.38035 28.5028 4.32892 28.7797 4.12718 28.9161C4.05005 28.9676 3.96302 28.9933 3.87797 28.9933Z" fill="#343233"/>
</g>
<mask id="mask3_9_2514" style="mask-type:luminance" maskUnits="userSpaceOnUse" x="7" y="13" width="4" height="4">
<path d="M7.58887 13.8706H10.1205V16.2025H7.58887V13.8706Z" fill="white"/>
</mask>
<g mask="url(#mask3_9_2514)">
<mask id="mask4_9_2514" style="mask-type:luminance" maskUnits="userSpaceOnUse" x="7" y="13" width="3" height="4">
<path d="M9.95223 15.0138C9.95223 15.1661 9.92257 15.3105 9.86521 15.449C9.80785 15.5894 9.72478 15.712 9.61996 15.8188C9.51315 15.9256 9.39053 16.0067 9.2501 16.0641C9.11165 16.1214 8.96529 16.1511 8.81497 16.1511C8.66466 16.1511 8.52027 16.1214 8.37985 16.0641C8.2414 16.0067 8.11877 15.9256 8.01197 15.8188C7.90516 15.712 7.82407 15.5894 7.76473 15.449C7.70738 15.3105 7.67969 15.1661 7.67969 15.0138C7.67969 14.8635 7.70738 14.7191 7.76473 14.5807C7.82407 14.4402 7.90516 14.3176 8.01197 14.2108C8.11877 14.104 8.2414 14.0229 8.37985 13.9656C8.52027 13.9062 8.66466 13.8785 8.81497 13.8785C8.96529 13.8785 9.11165 13.9062 9.2501 13.9656C9.39053 14.0229 9.51315 14.104 9.61996 14.2108C9.72478 14.3176 9.80785 14.4402 9.86521 14.5807C9.92257 14.7191 9.95223 14.8635 9.95223 15.0138Z" fill="white"/>
</mask>
<g mask="url(#mask4_9_2514)">
<path d="M7.67969 13.8785V16.1511H9.95223V13.8785H7.67969Z" fill="#18B368"/>
</g>
</g>
<mask id="mask5_9_2514" style="mask-type:luminance" maskUnits="userSpaceOnUse" x="17" y="13" width="4" height="4">
<path d="M17.7153 13.8706H20.247V16.2025H17.7153V13.8706Z" fill="white"/>
</mask>
<g mask="url(#mask5_9_2514)">
<mask id="mask6_9_2514" style="mask-type:luminance" maskUnits="userSpaceOnUse" x="17" y="13" width="4" height="4">
<path d="M20.0689 15.0138C20.0689 15.1661 20.0393 15.3105 19.9819 15.449C19.9246 15.5894 19.8415 15.712 19.7367 15.8188C19.6299 15.9256 19.5072 16.0067 19.3668 16.0641C19.2283 16.1214 19.082 16.1511 18.9317 16.1511C18.7814 16.1511 18.637 16.1214 18.4965 16.0641C18.3581 16.0067 18.2355 15.9256 18.1287 15.8188C18.0219 15.712 17.9408 15.5894 17.8814 15.449C17.8241 15.3105 17.7964 15.1661 17.7964 15.0138C17.7964 14.8635 17.8241 14.7191 17.8814 14.5807C17.9408 14.4402 18.0219 14.3176 18.1287 14.2108C18.2355 14.104 18.3581 14.0229 18.4965 13.9656C18.637 13.9062 18.7814 13.8785 18.9317 13.8785C19.082 13.8785 19.2283 13.9062 19.3668 13.9656C19.5072 14.0229 19.6299 14.104 19.7367 14.2108C19.8415 14.3176 19.9246 14.4402 19.9819 14.5807C20.0393 14.7191 20.0689 14.8635 20.0689 15.0138Z" fill="white"/>
</mask>
<g mask="url(#mask6_9_2514)">
<path d="M17.7964 13.8785V16.1511H20.0689V13.8785H17.7964Z" fill="#18B368"/>
</g>
</g>
<mask id="mask7_9_2514" style="mask-type:luminance" maskUnits="userSpaceOnUse" x="13" y="36" width="25" height="17">
<path d="M13.1582 36.962H37.462V52.0075H13.1582V36.962Z" fill="white"/>
</mask>
<g mask="url(#mask7_9_2514)">
<path d="M25.2884 51.8691C18.7675 51.8691 13.4648 46.5665 13.4648 40.0455V37.678C13.4648 37.4347 13.6626 37.235 13.9059 37.235C14.1512 37.235 14.3489 37.4347 14.3489 37.678V40.0455C14.3489 46.0779 19.256 50.983 25.2884 50.983C31.3189 50.983 36.2259 46.0779 36.2259 40.0455V37.678C36.2259 37.4347 36.4237 37.235 36.669 37.235C36.9142 37.235 37.112 37.4347 37.112 37.678V40.0455C37.112 46.5665 31.8074 51.8691 25.2884 51.8691Z" fill="#343233"/>
</g>
<path d="M36.4298 38.121C35.3281 38.121 34.4321 37.2251 34.4321 36.1234C34.4321 35.0198 35.3281 34.1238 36.4298 34.1238C37.5314 34.1238 38.4294 35.0198 38.4294 36.1234C38.4294 37.2251 37.5314 38.121 36.4298 38.121ZM36.4298 35.0099C35.8166 35.0099 35.3182 35.5083 35.3182 36.1234C35.3182 36.7365 35.8166 37.235 36.4298 37.235C37.0429 37.235 37.5433 36.7365 37.5433 36.1234C37.5433 35.5083 37.0429 35.0099 36.4298 35.0099Z" fill="#343233"/>
<mask id="mask8_9_2514" style="mask-type:luminance" maskUnits="userSpaceOnUse" x="0" y="24" width="19" height="8">
<path d="M0.737305 24.3038H18.7278V31.8987H0.737305V24.3038Z" fill="white"/>
</mask>
<g mask="url(#mask8_9_2514)">
<path d="M9.77592 31.7405C9.59396 31.7405 9.42979 31.6278 9.36452 31.4577L7.76642 27.3616L6.99506 28.8924C6.9199 29.0427 6.76761 29.1357 6.59949 29.1357H1.23161C0.98636 29.1357 0.788574 28.9379 0.788574 28.6927C0.788574 28.4494 0.98636 28.2496 1.23161 28.2496H6.32655L7.42228 26.076C7.50139 25.9197 7.66555 25.8248 7.8396 25.8327C8.01365 25.8406 8.16793 25.9514 8.23122 26.1135L9.77987 30.089L11.8309 24.9387C11.8962 24.7706 12.0603 24.6598 12.2423 24.6598C12.2423 24.6598 12.2443 24.6598 12.2462 24.6598C12.4282 24.6618 12.5904 24.7745 12.6557 24.9466L13.9571 28.3782H17.8099C18.0552 28.3782 18.253 28.576 18.253 28.8212C18.253 29.0645 18.0552 29.2643 17.8099 29.2643H13.6525C13.4686 29.2643 13.3024 29.1495 13.2372 28.9775L12.2324 26.3252L10.1893 31.4616C10.1201 31.6298 9.95788 31.7405 9.77592 31.7405Z" fill="#343233"/>
</g>
<path d="M59.3662 14.9237V18.0329H55.6162V28.9901H51.708V18.0329H47.9976V14.9237H59.3662Z" fill="black"/>
<path d="M64.7374 18.0566V20.3509H69.2232V23.3256H64.7374V25.8572H69.8245V28.9901H60.8213V14.9237H69.8245V18.0566H64.7374Z" fill="black"/>
<path d="M75.6686 25.9996H80.0357V28.9901H71.7524V14.9237H75.6686V25.9996Z" fill="black"/>
<path d="M85.4625 18.0566V20.3509H89.9483V23.3256H85.4625V25.8572H90.5496V28.9901H81.5464V14.9237H90.5496V18.0566H85.4625Z" fill="black"/>
<path d="M63.2984 35.9521V49.7575H61.4867V39.4648L56.8981 49.7575H55.6164L51.012 39.4411V49.7575H49.1924V35.9521H51.1465L56.2573 47.3604L61.368 35.9521H63.2984Z" fill="black"/>
<path d="M68.1868 37.3287V41.9727H73.2501V43.4759H68.1868V48.2623H73.8514V49.7575H66.3672V35.8335H73.8514V37.3287H68.1868Z" fill="black"/>
<path d="M80.9276 35.8493C82.4466 35.8493 83.7599 36.1341 84.8675 36.7037C85.9791 37.2694 86.8315 38.0764 87.4229 39.1246C88.0182 40.1749 88.3169 41.411 88.3169 42.8351C88.3169 44.2591 88.0182 45.4933 87.4229 46.5376C86.8315 47.5819 85.9791 48.3809 84.8675 48.9347C83.7599 49.4846 82.4466 49.7575 80.9276 49.7575H76.6001V35.8493H80.9276ZM80.9276 48.2623C82.7255 48.2623 84.0961 47.7876 85.0416 46.8382C85.985 45.8849 86.4577 44.5499 86.4577 42.8351C86.4577 41.1064 85.9791 39.7556 85.0257 38.7844C84.0764 37.8153 82.7097 37.3287 80.9276 37.3287H78.4197V48.2623H80.9276Z" fill="black"/>
<path d="M92.5223 35.8493V49.7575H90.7026V35.8493H92.5223Z" fill="black"/>
<path d="M94.9292 42.7955C94.9292 41.4407 95.2338 40.2204 95.8469 39.1325C96.4581 38.0467 97.2908 37.1982 98.3469 36.5851C99.407 35.9739 100.582 35.6674 101.875 35.6674C103.394 35.6674 104.718 36.0352 105.847 36.767C106.974 37.5008 107.801 38.5392 108.323 39.8841H106.148C105.762 39.0455 105.206 38.4007 104.478 37.9458C103.754 37.4929 102.888 37.2655 101.875 37.2655C100.904 37.2655 100.032 37.4929 99.2567 37.9458C98.4854 38.4007 97.8821 39.0435 97.445 39.8762C97.0059 40.7049 96.7884 41.678 96.7884 42.7955C96.7884 43.8992 97.0059 44.8663 97.445 45.699C97.8821 46.5277 98.4854 47.1685 99.2567 47.6215C100.032 48.0764 100.904 48.3019 101.875 48.3019C102.888 48.3019 103.754 48.0803 104.478 47.6373C105.206 47.1903 105.762 46.5455 106.148 45.7069H108.323C107.801 47.036 106.974 48.0645 105.847 48.7924C104.718 49.5163 103.394 49.8762 101.875 49.8762C100.582 49.8762 99.407 49.5756 98.3469 48.9743C97.2908 48.3691 96.4581 47.5265 95.8469 46.4506C95.2338 45.3707 94.9292 44.1523 94.9292 42.7955Z" fill="black"/>
<path d="M112.828 35.8493V49.7575H111.009V35.8493H112.828Z" fill="black"/>
<path d="M126.85 49.7575H125.038L117.736 38.6816V49.7575H115.916V35.8335H117.736L125.038 46.8857V35.8335H126.85V49.7575Z" fill="black"/>
<path d="M131.763 37.3287V41.9727H136.826V43.4759H131.763V48.2623H137.428V49.7575H129.943V35.8335H137.428V37.3287H131.763Z" fill="black"/>
<mask id="mask9_9_2514" style="mask-type:luminance" maskUnits="userSpaceOnUse" x="93" y="23" width="7" height="7">
<path d="M93.3008 23.39H99.4064V29.4937H93.3008V23.39Z" fill="white"/>
</mask>
<g mask="url(#mask9_9_2514)">
<mask id="mask10_9_2514" style="mask-type:luminance" maskUnits="userSpaceOnUse" x="93" y="23" width="7" height="7">
<path d="M96.3526 23.39C94.6675 23.39 93.3008 24.7567 93.3008 26.4419C93.3008 28.127 94.6675 29.4937 96.3526 29.4937C98.0397 29.4937 99.4064 28.127 99.4064 26.4419C99.4064 24.7567 98.0397 23.39 96.3526 23.39Z" fill="white"/>
</mask>
<g mask="url(#mask10_9_2514)">
<path d="M93.3008 23.39H99.4064V29.4937H93.3008V23.39Z" fill="#18B368"/>
</g>
</g>
</g>
<defs>
<clipPath id="clip0_9_2514">
<rect width="150" height="66.4557" fill="white" transform="translate(0.5)"/>
</clipPath>
</defs>
</svg>
