<svg width="42" height="39" viewBox="0 0 42 39" fill="none" xmlns="http://www.w3.org/2000/svg">
<mask id="mask0_191_356" style="mask-type:luminance" maskUnits="userSpaceOnUse" x="31" y="17" width="11" height="12">
<path d="M31.3857 17.8862H41.5123V28.5191H31.3857V17.8862Z" fill="white"/>
</mask>
<g mask="url(#mask0_191_356)">
<mask id="mask1_191_356" style="mask-type:luminance" maskUnits="userSpaceOnUse" x="31" y="18" width="11" height="11">
<path d="M41.4113 23.169C41.4113 23.4895 41.3817 23.8059 41.3184 24.1204C41.2571 24.4349 41.1641 24.7395 41.0415 25.0342C40.9189 25.3289 40.7685 25.6097 40.5905 25.8767C40.4125 26.1418 40.2108 26.389 39.9853 26.6145C39.7598 26.8399 39.5126 27.0437 39.2476 27.2197C38.9806 27.3977 38.6997 27.548 38.405 27.6706C38.1083 27.7933 37.8037 27.8862 37.4912 27.9475C37.1768 28.0108 36.8603 28.0425 36.5399 28.0425C36.2195 28.0425 35.903 28.0108 35.5905 27.9475C35.2761 27.8862 34.9715 27.7933 34.6768 27.6706C34.3801 27.548 34.0992 27.3977 33.8342 27.2197C33.5672 27.0437 33.3219 26.8399 33.0945 26.6145C32.869 26.389 32.6673 26.1418 32.4893 25.8767C32.3113 25.6097 32.1609 25.3289 32.0383 25.0342C31.9177 24.7395 31.8247 24.4349 31.7614 24.1204C31.7001 23.8059 31.6685 23.4895 31.6685 23.169C31.6685 22.8506 31.7001 22.5322 31.7614 22.2197C31.8247 21.9052 31.9177 21.6006 32.0383 21.3059C32.1609 21.0092 32.3113 20.7284 32.4893 20.4634C32.6673 20.1963 32.869 19.9511 33.0945 19.7256C33.3219 19.4982 33.5672 19.2964 33.8342 19.1184C34.0992 18.9404 34.3801 18.7901 34.6768 18.6694C34.9715 18.5468 35.2761 18.4539 35.5905 18.3906C35.903 18.3293 36.2195 18.2976 36.5399 18.2976C36.8603 18.2976 37.1768 18.3293 37.4912 18.3906C37.8037 18.4539 38.1083 18.5468 38.405 18.6694C38.6997 18.7901 38.9806 18.9404 39.2476 19.1184C39.5126 19.2964 39.7598 19.4982 39.9853 19.7256C40.2108 19.9511 40.4125 20.1963 40.5905 20.4634C40.7685 20.7284 40.9189 21.0092 41.0415 21.3059C41.1641 21.6006 41.2571 21.9052 41.3184 22.2197C41.3817 22.5322 41.4113 22.8506 41.4113 23.169Z" fill="white"/>
</mask>
<g mask="url(#mask1_191_356)">
<path d="M31.6685 18.2976V28.0425H41.4113V18.2976H31.6685Z" fill="#18B368"/>
</g>
</g>
<path d="M13.9058 25.0813C13.8306 25.0813 13.7535 25.0615 13.6843 25.0219C13.4766 24.9013 8.5379 22.0314 4.8057 17.516C4.65143 17.3281 4.67714 17.0492 4.86504 16.893C5.05491 16.7367 5.33379 16.7644 5.49004 16.9523C8.67833 20.8091 12.901 23.5069 13.9058 24.12C15.49 23.1509 25.051 16.9998 26.0557 9.23278C26.1111 8.89457 26.1388 8.56822 26.1388 8.24979C26.1388 5.00019 23.4944 2.3558 20.2428 2.3558C19.9995 2.3558 19.7998 2.15802 19.7998 1.91276C19.7998 1.66751 19.9995 1.46973 20.2428 1.46973C23.9829 1.46973 27.0248 4.51166 27.0248 8.24979C27.0248 8.61767 26.9932 8.99148 26.9319 9.36134C25.7867 18.2122 14.602 24.747 14.1273 25.0219C14.0581 25.0615 13.9829 25.0813 13.9058 25.0813Z" fill="#343233"/>
<mask id="mask2_191_356" style="mask-type:luminance" maskUnits="userSpaceOnUse" x="0" y="1" width="9" height="16">
<path d="M0.737305 1.17725H8.0949V16.3671H0.737305V1.17725Z" fill="white"/>
</mask>
<g mask="url(#mask2_191_356)">
<path d="M3.87797 15.9933C3.73557 15.9933 3.59712 15.9261 3.51207 15.7995C2.03857 13.6397 1.1525 11.47 0.877578 9.34774C0.82022 8.9937 0.788574 8.61989 0.788574 8.25003C0.788574 4.5119 3.83051 1.46997 7.56864 1.46997C7.81389 1.46997 8.01168 1.66776 8.01168 1.91301C8.01168 2.15826 7.81389 2.35605 7.56864 2.35605C4.31903 2.35605 1.67465 5.00043 1.67465 8.25003C1.67465 8.57045 1.70036 8.89679 1.75376 9.2172C2.01286 11.2148 2.84949 13.2579 4.24387 15.3011C4.38035 15.5028 4.32892 15.7797 4.12718 15.9162C4.05005 15.9676 3.96302 15.9933 3.87797 15.9933Z" fill="#343233"/>
</g>
<mask id="mask3_191_356" style="mask-type:luminance" maskUnits="userSpaceOnUse" x="7" y="0" width="4" height="4">
<path d="M7.58887 0.870605H10.1205V3.20249H7.58887V0.870605Z" fill="white"/>
</mask>
<g mask="url(#mask3_191_356)">
<mask id="mask4_191_356" style="mask-type:luminance" maskUnits="userSpaceOnUse" x="7" y="0" width="3" height="4">
<path d="M9.95223 2.0137C9.95223 2.166 9.92257 2.31038 9.86521 2.44883C9.80785 2.58926 9.72478 2.71188 9.61996 2.81869C9.51315 2.92549 9.39053 3.00658 9.2501 3.06394C9.11165 3.1213 8.96529 3.15097 8.81497 3.15097C8.66466 3.15097 8.52027 3.1213 8.37985 3.06394C8.2414 3.00658 8.11877 2.92549 8.01197 2.81869C7.90516 2.71188 7.82407 2.58926 7.76473 2.44883C7.70738 2.31038 7.67969 2.166 7.67969 2.0137C7.67969 1.86339 7.70738 1.719 7.76473 1.58055C7.82407 1.44013 7.90516 1.3175 8.01197 1.2107C8.11877 1.10389 8.2414 1.0228 8.37985 0.965443C8.52027 0.906108 8.66466 0.878418 8.81497 0.878418C8.96529 0.878418 9.11165 0.906108 9.2501 0.965443C9.39053 1.0228 9.51315 1.10389 9.61996 1.2107C9.72478 1.3175 9.80785 1.44013 9.86521 1.58055C9.92257 1.719 9.95223 1.86339 9.95223 2.0137Z" fill="white"/>
</mask>
<g mask="url(#mask4_191_356)">
<path d="M7.67969 0.878418V3.15097H9.95223V0.878418H7.67969Z" fill="#18B368"/>
</g>
</g>
<mask id="mask5_191_356" style="mask-type:luminance" maskUnits="userSpaceOnUse" x="17" y="0" width="4" height="4">
<path d="M17.7148 0.870605H20.2465V3.20249H17.7148V0.870605Z" fill="white"/>
</mask>
<g mask="url(#mask5_191_356)">
<mask id="mask6_191_356" style="mask-type:luminance" maskUnits="userSpaceOnUse" x="17" y="0" width="4" height="4">
<path d="M20.0684 2.0137C20.0684 2.166 20.0388 2.31038 19.9814 2.44883C19.9241 2.58926 19.841 2.71188 19.7362 2.81869C19.6294 2.92549 19.5067 3.00658 19.3663 3.06394C19.2279 3.1213 19.0815 3.15097 18.9312 3.15097C18.7809 3.15097 18.6365 3.1213 18.4961 3.06394C18.3576 3.00658 18.235 2.92549 18.1282 2.81869C18.0214 2.71188 17.9403 2.58926 17.8809 2.44883C17.8236 2.31038 17.7959 2.166 17.7959 2.0137C17.7959 1.86339 17.8236 1.719 17.8809 1.58055C17.9403 1.44013 18.0214 1.3175 18.1282 1.2107C18.235 1.10389 18.3576 1.0228 18.4961 0.965443C18.6365 0.906108 18.7809 0.878418 18.9312 0.878418C19.0815 0.878418 19.2279 0.906108 19.3663 0.965443C19.5067 1.0228 19.6294 1.10389 19.7362 1.2107C19.841 1.3175 19.9241 1.44013 19.9814 1.58055C20.0388 1.719 20.0684 1.86339 20.0684 2.0137Z" fill="white"/>
</mask>
<g mask="url(#mask6_191_356)">
<path d="M17.7959 0.878418V3.15097H20.0684V0.878418H17.7959Z" fill="#18B368"/>
</g>
</g>
<mask id="mask7_191_356" style="mask-type:luminance" maskUnits="userSpaceOnUse" x="13" y="23" width="25" height="17">
<path d="M13.1582 23.9619H37.462V39.0074H13.1582V23.9619Z" fill="white"/>
</mask>
<g mask="url(#mask7_191_356)">
<path d="M25.2884 38.869C18.7675 38.869 13.4648 33.5664 13.4648 27.0454V24.6779C13.4648 24.4346 13.6626 24.2349 13.9059 24.2349C14.1512 24.2349 14.3489 24.4346 14.3489 24.6779V27.0454C14.3489 33.0778 19.256 37.9829 25.2884 37.9829C31.3189 37.9829 36.2259 33.0778 36.2259 27.0454V24.6779C36.2259 24.4346 36.4237 24.2349 36.669 24.2349C36.9142 24.2349 37.112 24.4346 37.112 24.6779V27.0454C37.112 33.5664 31.8074 38.869 25.2884 38.869Z" fill="#343233"/>
</g>
<path d="M36.4293 25.1213C35.3276 25.1213 34.4316 24.2253 34.4316 23.1236C34.4316 22.02 35.3276 21.124 36.4293 21.124C37.5309 21.124 38.4289 22.02 38.4289 23.1236C38.4289 24.2253 37.5309 25.1213 36.4293 25.1213ZM36.4293 22.0101C35.8161 22.0101 35.3177 22.5085 35.3177 23.1236C35.3177 23.7368 35.8161 24.2352 36.4293 24.2352C37.0424 24.2352 37.5428 23.7368 37.5428 23.1236C37.5428 22.5085 37.0424 22.0101 36.4293 22.0101Z" fill="#343233"/>
<mask id="mask8_191_356" style="mask-type:luminance" maskUnits="userSpaceOnUse" x="0" y="11" width="19" height="8">
<path d="M0.737305 11.3037H18.7278V18.8986H0.737305V11.3037Z" fill="white"/>
</mask>
<g mask="url(#mask8_191_356)">
<path d="M9.77592 18.7404C9.59395 18.7404 9.42979 18.6276 9.36452 18.4575L7.76642 14.3614L6.99506 15.8923C6.9199 16.0426 6.76761 16.1355 6.59949 16.1355H1.23161C0.98636 16.1355 0.788574 15.9378 0.788574 15.6925C0.788574 15.4492 0.98636 15.2495 1.23161 15.2495H6.32655L7.42228 13.0758C7.50139 12.9196 7.66555 12.8246 7.8396 12.8325C8.01365 12.8404 8.16793 12.9512 8.23122 13.1134L9.77987 17.0889L11.8309 11.9385C11.8962 11.7704 12.0603 11.6597 12.2423 11.6597C12.2423 11.6597 12.2443 11.6597 12.2462 11.6597C12.4282 11.6616 12.5904 11.7744 12.6557 11.9465L13.9571 15.378H17.8099C18.0552 15.378 18.253 15.5758 18.253 15.8211C18.253 16.0643 18.0552 16.2641 17.8099 16.2641H13.6525C13.4686 16.2641 13.3024 16.1494 13.2372 15.9773L12.2324 13.325L10.1893 18.4615C10.1201 18.6296 9.95788 18.7404 9.77592 18.7404Z" fill="#343233"/>
</g>
</svg>
